# Blender 4.0.2
# www.blender.org
mtllib shipproto.mtl
o Cube.001
v 2.273535 1.000000 -44.191513
v 0.273535 1.000000 -44.191513
v 2.273535 -1.000000 -44.191513
v 0.273535 -1.000000 -44.191513
v 2.273538 1.000000 3.088486
v 0.273538 1.000000 3.088486
v 2.273537 -1.000000 3.088486
v 0.273537 -1.000000 3.088486
vn 1.0000 -0.0000 -0.0000
vn -0.0000 -1.0000 -0.0000
vn -0.0000 -0.0000 1.0000
vn -1.0000 -0.0000 -0.0000
vn -0.0000 -0.0000 -1.0000
vn -0.0000 1.0000 -0.0000
vt 0.625000 0.500000
vt 0.875000 0.500000
vt 0.875000 0.750000
vt 0.625000 0.750000
vt 0.375000 0.750000
vt 0.625000 1.000000
vt 0.375000 1.000000
vt 0.375000 0.000000
vt 0.625000 0.000000
vt 0.625000 0.250000
vt 0.375000 0.250000
vt 0.125000 0.500000
vt 0.375000 0.500000
vt 0.125000 0.750000
s 0
usemtl Material.001
f 1/1/1 5/2/1 7/3/1 3/4/1
f 4/5/2 3/4/2 7/6/2 8/7/2
f 8/8/3 7/9/3 5/10/3 6/11/3
f 6/12/4 2/13/4 4/5/4 8/14/4
f 2/13/5 1/1/5 3/4/5 4/5/5
f 6/11/6 5/10/6 1/1/6 2/13/6
o Cube.004
v -20.891487 -9.048737 -3.112844
v -21.349169 -7.620420 -3.091845
v -20.499582 -8.716769 -13.346012
v -20.957266 -7.288453 -13.325012
v 0.524847 -2.371910 13.323914
v 0.067163 -0.943594 13.344913
v 6.114328 -0.437900 3.601685
v 5.656645 0.990415 3.622685
vn -0.9515 -0.3042 -0.0463
vn 0.4912 0.1699 -0.8543
vn 0.8159 0.2538 0.5195
vn -0.5594 -0.1911 0.8065
vn 0.3073 -0.9515 -0.0159
vn -0.3073 0.9515 0.0159
vt 0.375000 0.000000
vt 0.625000 0.000000
vt 0.625000 0.250000
vt 0.375000 0.250000
vt 0.625000 0.500000
vt 0.375000 0.500000
vt 0.625000 0.750000
vt 0.375000 0.750000
vt 0.625000 1.000000
vt 0.375000 1.000000
vt 0.125000 0.500000
vt 0.125000 0.750000
vt 0.875000 0.500000
vt 0.875000 0.750000
s 0
f 9/15/7 10/16/7 12/17/7 11/18/7
f 11/18/8 12/17/8 16/19/8 15/20/8
f 15/20/9 16/19/9 14/21/9 13/22/9
f 13/22/10 14/21/10 10/23/10 9/24/10
f 11/25/11 15/20/11 13/22/11 9/26/11
f 16/19/12 12/27/12 10/28/12 14/21/12
o Cube.003
v -18.458542 -7.917792 -3.327485
v -18.623306 -7.403599 -3.319925
v -19.309288 -8.076405 -9.711542
v -19.474056 -7.562211 -9.703981
v -0.476193 -2.326728 9.680758
v -0.640960 -1.812534 9.688318
v 2.637805 -1.249257 4.264333
v 2.473039 -0.735063 4.271893
vn -0.9432 -0.3042 0.1333
vn 0.4912 0.1699 -0.8543
vn 0.8159 0.2538 0.5195
vn -0.5378 -0.1844 0.8227
vn 0.3064 -0.9518 -0.0153
vn -0.3064 0.9518 0.0153
vt 0.375000 0.000000
vt 0.625000 0.000000
vt 0.625000 0.250000
vt 0.375000 0.250000
vt 0.625000 0.500000
vt 0.375000 0.500000
vt 0.625000 0.750000
vt 0.375000 0.750000
vt 0.625000 1.000000
vt 0.375000 1.000000
vt 0.125000 0.500000
vt 0.125000 0.750000
vt 0.875000 0.500000
vt 0.875000 0.750000
s 0
f 17/29/13 18/30/13 20/31/13 19/32/13
f 19/32/14 20/31/14 24/33/14 23/34/14
f 23/34/15 24/33/15 22/35/15 21/36/15
f 21/36/16 22/35/16 18/37/16 17/38/16
f 19/39/17 23/34/17 21/36/17 17/40/17
f 24/33/18 20/41/18 18/42/18 22/35/18
o Cube.005
v -18.976715 -6.300688 -3.303714
v -19.141481 -5.786494 -3.296154
v -19.827461 -6.459299 -9.687772
v -19.992228 -5.945106 -9.680211
v -0.994375 -0.709625 9.704537
v -1.159142 -0.195431 9.712098
v 2.119627 0.367847 4.288114
v 1.954861 0.882040 4.295674
vn -0.9432 -0.3042 0.1333
vn 0.4912 0.1699 -0.8543
vn 0.8159 0.2538 0.5195
vn -0.5378 -0.1844 0.8227
vn 0.3064 -0.9518 -0.0153
vn -0.3064 0.9518 0.0153
vt 0.375000 0.000000
vt 0.625000 0.000000
vt 0.625000 0.250000
vt 0.375000 0.250000
vt 0.625000 0.500000
vt 0.375000 0.500000
vt 0.625000 0.750000
vt 0.375000 0.750000
vt 0.625000 1.000000
vt 0.375000 1.000000
vt 0.125000 0.500000
vt 0.125000 0.750000
vt 0.875000 0.500000
vt 0.875000 0.750000
s 0
f 25/43/19 26/44/19 28/45/19 27/46/19
f 27/46/20 28/45/20 32/47/20 31/48/20
f 31/48/21 32/47/21 30/49/21 29/50/21
f 29/50/22 30/49/22 26/51/22 25/52/22
f 27/53/23 31/48/23 29/50/23 25/54/23
f 32/47/24 28/55/24 26/56/24 30/49/24
o Cube.006
v 21.437366 -8.373284 -1.903145
v 21.249395 -8.879513 -1.903144
v 22.469215 -8.776881 -8.249601
v 22.281246 -9.283110 -8.249601
v 3.313793 -1.664206 10.359140
v 3.125824 -2.170435 10.359140
v 0.426664 -0.592181 4.817403
v 0.238695 -1.098409 4.817403
vn 0.9235 -0.3429 0.1720
vn -0.4554 0.1691 -0.8741
vn -0.8194 0.3043 0.4858
vn 0.5023 -0.1865 0.8444
vn 0.3469 0.9379 -0.0014
vn -0.3469 -0.9379 0.0014
vt 0.375000 0.000000
vt 0.625000 0.000000
vt 0.625000 0.250000
vt 0.375000 0.250000
vt 0.625000 0.500000
vt 0.375000 0.500000
vt 0.625000 0.750000
vt 0.375000 0.750000
vt 0.625000 1.000000
vt 0.375000 1.000000
vt 0.125000 0.500000
vt 0.125000 0.750000
vt 0.875000 0.500000
vt 0.875000 0.750000
s 0
f 33/57/25 34/58/25 36/59/25 35/60/25
f 35/60/26 36/59/26 40/61/26 39/62/26
f 39/62/27 40/61/27 38/63/27 37/64/27
f 37/64/28 38/63/28 34/65/28 33/66/28
f 35/67/29 39/62/29 37/64/29 33/68/29
f 40/61/30 36/69/30 34/70/30 38/63/30
o Cube.007
v 23.603691 -9.598005 -1.595945
v 23.081554 -11.004196 -1.595944
v 23.516176 -9.622332 -11.841591
v 22.994040 -11.028522 -11.841589
v 1.968771 -1.621476 13.951128
v 1.446634 -3.027667 13.951130
v -3.213490 0.302760 4.003973
v -3.735626 -1.103431 4.003974
vn 0.9374 -0.3481 -0.0072
vn -0.4554 0.1691 -0.8741
vn -0.8194 0.3043 0.4858
vn 0.5241 -0.1946 0.8291
vn 0.3460 0.9382 -0.0020
vn -0.3460 -0.9382 0.0020
vt 0.375000 0.000000
vt 0.625000 0.000000
vt 0.625000 0.250000
vt 0.375000 0.250000
vt 0.625000 0.500000
vt 0.375000 0.500000
vt 0.625000 0.750000
vt 0.375000 0.750000
vt 0.625000 1.000000
vt 0.375000 1.000000
vt 0.125000 0.500000
vt 0.125000 0.750000
vt 0.875000 0.500000
vt 0.875000 0.750000
s 0
f 41/71/31 42/72/31 44/73/31 43/74/31
f 43/74/32 44/73/32 48/75/32 47/76/32
f 47/76/33 48/75/33 46/77/33 45/78/33
f 45/78/34 46/77/34 42/79/34 41/80/34
f 43/81/35 47/76/35 45/78/35 41/82/35
f 48/75/36 44/83/36 42/84/36 46/77/36
o Cube.008
v 20.846214 -9.965340 -1.903145
v 20.658243 -10.471568 -1.903144
v 21.878063 -10.368937 -8.249601
v 21.690094 -10.875166 -8.249601
v 2.722641 -3.256261 10.359140
v 2.534672 -3.762490 10.359140
v -0.164488 -2.184236 4.817403
v -0.352457 -2.690464 4.817403
vn 0.9235 -0.3429 0.1720
vn -0.4554 0.1691 -0.8741
vn -0.8194 0.3043 0.4858
vn 0.5023 -0.1865 0.8444
vn 0.3469 0.9379 -0.0014
vn -0.3469 -0.9379 0.0014
vt 0.375000 0.000000
vt 0.625000 0.000000
vt 0.625000 0.250000
vt 0.375000 0.250000
vt 0.625000 0.500000
vt 0.375000 0.500000
vt 0.625000 0.750000
vt 0.375000 0.750000
vt 0.625000 1.000000
vt 0.375000 1.000000
vt 0.125000 0.500000
vt 0.125000 0.750000
vt 0.875000 0.500000
vt 0.875000 0.750000
s 0
f 49/85/37 50/86/37 52/87/37 51/88/37
f 51/88/38 52/87/38 56/89/38 55/90/38
f 55/90/39 56/89/39 54/91/39 53/92/39
f 53/92/40 54/91/40 50/93/40 49/94/40
f 51/95/41 55/90/41 53/92/41 49/96/41
f 56/89/42 52/97/42 50/98/42 54/91/42
o Cube
v -1.746258 0.045919 14.570000
v 1.339910 3.068825 14.570000
v -1.746258 0.045919 -14.570000
v 1.339910 3.068825 -14.570000
v 1.304638 -3.068825 14.570000
v 4.390806 -0.045919 14.570000
v 1.304638 -3.068825 -14.570000
v 4.390806 -0.045919 -14.570000
vn -0.6997 0.7144 -0.0000
vn -0.0000 -0.0000 -1.0000
vn 0.6997 -0.7144 -0.0000
vn -0.0000 -0.0000 1.0000
vn -0.7144 -0.6997 -0.0000
vn 0.7144 0.6997 -0.0000
vt 0.375000 0.000000
vt 0.625000 0.000000
vt 0.625000 0.250000
vt 0.375000 0.250000
vt 0.625000 0.500000
vt 0.375000 0.500000
vt 0.625000 0.750000
vt 0.375000 0.750000
vt 0.625000 1.000000
vt 0.375000 1.000000
vt 0.125000 0.500000
vt 0.125000 0.750000
vt 0.875000 0.500000
vt 0.875000 0.750000
s 0
f 57/99/43 58/100/43 60/101/43 59/102/43
f 59/102/44 60/101/44 64/103/44 63/104/44
f 63/104/45 64/103/45 62/105/45 61/106/45
f 61/106/46 62/105/46 58/107/46 57/108/46
f 59/109/47 63/104/47 61/106/47 57/110/47
f 64/103/48 60/111/48 58/112/48 62/105/48
o Cube.002
v 19.563240 -11.237522 -1.442608
v 20.856075 -7.685484 -1.442608
v 19.563240 -11.237522 -13.382608
v 20.856075 -7.685484 -13.382608
v 23.322010 -12.605602 -1.442608
v 24.614845 -9.053564 -1.442608
v 23.322010 -12.605602 -13.382608
v 24.614845 -9.053564 -13.382608
vn -0.9397 0.3420 -0.0000
vn -0.0000 -0.0000 -1.0000
vn 0.9397 -0.3420 -0.0000
vn -0.0000 -0.0000 1.0000
vn -0.3420 -0.9397 -0.0000
vn 0.3420 0.9397 -0.0000
vt 0.375000 0.000000
vt 0.625000 0.000000
vt 0.625000 0.250000
vt 0.375000 0.250000
vt 0.625000 0.500000
vt 0.375000 0.500000
vt 0.625000 0.750000
vt 0.375000 0.750000
vt 0.625000 1.000000
vt 0.375000 1.000000
vt 0.125000 0.500000
vt 0.125000 0.750000
vt 0.875000 0.500000
vt 0.875000 0.750000
s 0
f 65/113/49 66/114/49 68/115/49 67/116/49
f 67/116/50 68/115/50 72/117/50 71/118/50
f 71/118/51 72/117/51 70/119/51 69/120/51
f 69/120/52 70/119/52 66/121/52 65/122/52
f 67/123/53 71/118/53 69/120/53 65/124/53
f 72/117/54 68/125/54 66/126/54 70/119/54
o Cube.009
v -22.834967 -11.447407 -3.495503
v -24.070982 -7.875199 -3.495503
v -22.834967 -11.447407 -15.435503
v -24.070982 -7.875199 -15.435503
v -19.054853 -10.139455 -3.495503
v -20.290869 -6.567247 -3.495503
v -19.054853 -10.139455 -15.435503
v -20.290869 -6.567247 -15.435503
vn -0.9450 -0.3270 -0.0000
vn -0.0000 -0.0000 -1.0000
vn 0.9450 0.3270 -0.0000
vn -0.0000 -0.0000 1.0000
vn 0.3270 -0.9450 -0.0000
vn -0.3270 0.9450 -0.0000
vt 0.375000 0.000000
vt 0.625000 0.000000
vt 0.625000 0.250000
vt 0.375000 0.250000
vt 0.625000 0.500000
vt 0.375000 0.500000
vt 0.625000 0.750000
vt 0.375000 0.750000
vt 0.625000 1.000000
vt 0.375000 1.000000
vt 0.125000 0.500000
vt 0.125000 0.750000
vt 0.875000 0.500000
vt 0.875000 0.750000
s 0
f 73/127/55 74/128/55 76/129/55 75/130/55
f 75/130/56 76/129/56 80/131/56 79/132/56
f 79/132/57 80/131/57 78/133/57 77/134/57
f 77/134/58 78/133/58 74/135/58 73/136/58
f 75/137/59 79/132/59 77/134/59 73/138/59
f 80/131/60 76/139/60 74/140/60 78/133/60
o Cube.010
v -4.807726 -5.039999 -44.670055
v -4.807726 5.039999 -44.670055
v -4.807726 -5.039999 -77.170059
v -4.807726 5.039999 -77.170059
v 7.452274 -5.039999 -44.670055
v 7.452274 5.039999 -44.670055
v 7.452274 -5.039999 -77.170059
v 7.452274 5.039999 -77.170059
vn -1.0000 -0.0000 -0.0000
vn -0.0000 -0.0000 -1.0000
vn 1.0000 -0.0000 -0.0000
vn -0.0000 -0.0000 1.0000
vn -0.0000 -1.0000 -0.0000
vn -0.0000 1.0000 -0.0000
vt 0.375000 0.000000
vt 0.625000 0.000000
vt 0.625000 0.250000
vt 0.375000 0.250000
vt 0.625000 0.500000
vt 0.375000 0.500000
vt 0.625000 0.750000
vt 0.375000 0.750000
vt 0.625000 1.000000
vt 0.375000 1.000000
vt 0.125000 0.500000
vt 0.125000 0.750000
vt 0.875000 0.500000
vt 0.875000 0.750000
s 0
f 81/141/61 82/142/61 84/143/61 83/144/61
f 83/144/62 84/143/62 88/145/62 87/146/62
f 87/146/63 88/145/63 86/147/63 85/148/63
f 85/148/64 86/147/64 82/149/64 81/150/64
f 83/151/65 87/146/65 85/148/65 81/152/65
f 88/145/66 84/153/66 82/154/66 86/147/66
o Cube.011
v -21.863688 -10.606304 -13.070721
v -22.942749 -7.487711 -13.070721
v -21.863688 -10.606304 -45.870720
v -22.942749 -7.487711 -45.870720
v -19.066402 -9.638420 -13.070721
v -20.145464 -6.519827 -13.070721
v -19.066402 -9.638420 -45.870720
v -20.145464 -6.519827 -45.870720
vn -0.9450 -0.3270 -0.0000
vn -0.0000 -0.0000 -1.0000
vn 0.9450 0.3270 -0.0000
vn -0.0000 -0.0000 1.0000
vn 0.3270 -0.9450 -0.0000
vn -0.3270 0.9450 -0.0000
vt 0.375000 0.000000
vt 0.625000 0.000000
vt 0.625000 0.250000
vt 0.375000 0.250000
vt 0.625000 0.500000
vt 0.375000 0.500000
vt 0.625000 0.750000
vt 0.375000 0.750000
vt 0.625000 1.000000
vt 0.375000 1.000000
vt 0.125000 0.500000
vt 0.125000 0.750000
vt 0.875000 0.500000
vt 0.875000 0.750000
s 0
f 89/155/67 90/156/67 92/157/67 91/158/67
f 91/158/68 92/157/68 96/159/68 95/160/68
f 95/160/69 96/159/69 94/161/69 93/162/69
f 93/162/70 94/161/70 90/163/70 89/164/70
f 91/165/71 95/160/71 93/162/71 89/166/71
f 96/159/72 92/167/72 90/168/72 94/161/72
o Cube.012
v 21.320997 -10.961777 -7.167826
v 22.182888 -8.593752 -7.167826
v 21.320997 -10.961777 -47.667824
v 22.182888 -8.593752 -47.667824
v 24.177662 -12.001518 -7.167826
v 25.039553 -9.633493 -7.167826
v 24.177662 -12.001518 -47.667824
v 25.039553 -9.633493 -47.667824
vn -0.9397 0.3420 -0.0000
vn -0.0000 -0.0000 -1.0000
vn 0.9397 -0.3420 -0.0000
vn -0.0000 -0.0000 1.0000
vn -0.3420 -0.9397 -0.0000
vn 0.3420 0.9397 -0.0000
vt 0.375000 0.000000
vt 0.625000 0.000000
vt 0.625000 0.250000
vt 0.375000 0.250000
vt 0.625000 0.500000
vt 0.375000 0.500000
vt 0.625000 0.750000
vt 0.375000 0.750000
vt 0.625000 1.000000
vt 0.375000 1.000000
vt 0.125000 0.500000
vt 0.125000 0.750000
vt 0.875000 0.500000
vt 0.875000 0.750000
s 0
f 97/169/73 98/170/73 100/171/73 99/172/73
f 99/172/74 100/171/74 104/173/74 103/174/74
f 103/174/75 104/173/75 102/175/75 101/176/75
f 101/176/76 102/175/76 98/177/76 97/178/76
f 99/179/77 103/174/77 101/176/77 97/180/77
f 104/173/78 100/181/78 98/182/78 102/175/78
o Cube.013
v -0.077726 -3.010000 -13.081282
v -0.077726 3.010000 -13.081282
v -0.077726 -3.010000 -45.241280
v -0.077726 3.010000 -45.241280
v 2.722274 -3.010000 -13.081282
v 2.722274 3.010000 -13.081282
v 2.722274 -3.010000 -45.241280
v 2.722274 3.010000 -45.241280
vn -1.0000 -0.0000 -0.0000
vn -0.0000 -0.0000 -1.0000
vn 1.0000 -0.0000 -0.0000
vn -0.0000 -0.0000 1.0000
vn -0.0000 -1.0000 -0.0000
vn -0.0000 1.0000 -0.0000
vt 0.375000 0.000000
vt 0.625000 0.000000
vt 0.625000 0.250000
vt 0.375000 0.250000
vt 0.625000 0.500000
vt 0.375000 0.500000
vt 0.625000 0.750000
vt 0.375000 0.750000
vt 0.625000 1.000000
vt 0.375000 1.000000
vt 0.125000 0.500000
vt 0.125000 0.750000
vt 0.875000 0.500000
vt 0.875000 0.750000
s 0
f 105/183/79 106/184/79 108/185/79 107/186/79
f 107/186/80 108/185/80 112/187/80 111/188/80
f 111/188/81 112/187/81 110/189/81 109/190/81
f 109/190/82 110/189/82 106/191/82 105/192/82
f 107/193/83 111/188/83 109/190/83 105/194/83
f 112/187/84 108/195/84 106/196/84 110/189/84
o Cube.014
v 2.273535 1.000000 -23.116896
v 0.273535 1.000000 -23.116896
v 2.273535 -1.000000 -23.116896
v 0.273535 -1.000000 -23.116896
v 2.273538 1.000000 24.163103
v 0.273538 1.000000 24.163103
v 2.273537 -1.000000 24.163103
v 0.273537 -1.000000 24.163103
vn 1.0000 -0.0000 -0.0000
vn -0.0000 -1.0000 -0.0000
vn -0.0000 -0.0000 1.0000
vn -1.0000 -0.0000 -0.0000
vn -0.0000 -0.0000 -1.0000
vn -0.0000 1.0000 -0.0000
vt 0.625000 0.500000
vt 0.875000 0.500000
vt 0.875000 0.750000
vt 0.625000 0.750000
vt 0.375000 0.750000
vt 0.625000 1.000000
vt 0.375000 1.000000
vt 0.375000 0.000000
vt 0.625000 0.000000
vt 0.625000 0.250000
vt 0.375000 0.250000
vt 0.125000 0.500000
vt 0.375000 0.500000
vt 0.125000 0.750000
s 0
usemtl Material.003
f 113/197/85 117/198/85 119/199/85 115/200/85
f 116/201/86 115/200/86 119/202/86 120/203/86
f 120/204/87 119/205/87 117/206/87 118/207/87
f 118/208/88 114/209/88 116/201/88 120/210/88
f 114/209/89 113/197/89 115/200/89 116/201/89
f 118/207/90 117/206/90 113/197/90 114/209/90
o Cube.015
v 23.756660 -11.365251 -44.662674
v 24.618553 -8.997227 -44.662674
v 23.756660 -11.365251 -77.002670
v 24.618553 -8.997227 -77.002670
v 41.047005 -17.658421 -56.465279
v 41.908897 -15.290397 -56.465279
v 41.047005 -17.658421 -77.002670
v 41.908897 -15.290397 -77.002670
vn -0.9397 0.3420 -0.0000
vn -0.0000 -0.0000 -1.0000
vn 0.9397 -0.3420 -0.0000
vn 0.5074 -0.1847 0.8417
vn -0.3420 -0.9397 -0.0000
vn 0.3420 0.9397 -0.0000
vt 0.375000 0.000000
vt 0.625000 0.000000
vt 0.625000 0.250000
vt 0.375000 0.250000
vt 0.625000 0.500000
vt 0.375000 0.500000
vt 0.625000 0.750000
vt 0.375000 0.750000
vt 0.625000 1.000000
vt 0.375000 1.000000
vt 0.125000 0.500000
vt 0.125000 0.750000
vt 0.875000 0.500000
vt 0.875000 0.750000
s 0
f 121/211/91 122/212/91 124/213/91 123/214/91
f 123/214/92 124/213/92 128/215/92 127/216/92
f 127/216/93 128/215/93 126/217/93 125/218/93
f 125/218/94 126/217/94 122/219/94 121/220/94
f 123/221/95 127/216/95 125/218/95 121/222/95
f 128/215/96 124/223/96 122/224/96 126/217/96
o Cube.016
v 21.089626 -10.595766 -44.743095
v 21.951517 -8.227741 -44.743095
v 21.089626 -10.595766 -77.083092
v 21.951517 -8.227741 -77.083092
v 23.946291 -11.635508 -44.743095
v 24.808182 -9.267483 -44.743095
v 23.946291 -11.635508 -77.083092
v 24.808182 -9.267483 -77.083092
vn -0.9397 0.3420 -0.0000
vn -0.0000 -0.0000 -1.0000
vn 0.9397 -0.3420 -0.0000
vn -0.0000 -0.0000 1.0000
vn -0.3420 -0.9397 -0.0000
vn 0.3420 0.9397 -0.0000
vt 0.375000 0.000000
vt 0.625000 0.000000
vt 0.625000 0.250000
vt 0.375000 0.250000
vt 0.625000 0.500000
vt 0.375000 0.500000
vt 0.625000 0.750000
vt 0.375000 0.750000
vt 0.625000 1.000000
vt 0.375000 1.000000
vt 0.125000 0.500000
vt 0.125000 0.750000
vt 0.875000 0.500000
vt 0.875000 0.750000
s 0
f 129/225/97 130/226/97 132/227/97 131/228/97
f 131/228/98 132/227/98 136/229/98 135/230/98
f 135/230/99 136/229/99 134/231/99 133/232/99
f 133/232/100 134/231/100 130/233/100 129/234/100
f 131/235/101 135/230/101 133/232/101 129/236/101
f 136/229/102 132/237/102 130/238/102 134/231/102
o Cube.017
v -22.978334 -9.454157 -44.743095
v -23.802343 -7.072686 -44.743095
v -22.978334 -9.454157 -77.083099
v -23.802343 -7.072686 -77.083099
v -20.105448 -8.460114 -44.743095
v -20.929457 -6.078643 -44.743095
v -20.105448 -8.460114 -77.083099
v -20.929457 -6.078643 -77.083099
vn -0.9450 -0.3270 -0.0000
vn -0.0000 -0.0000 -1.0000
vn 0.9450 0.3270 -0.0000
vn -0.0000 -0.0000 1.0000
vn 0.3270 -0.9450 -0.0000
vn -0.3270 0.9450 -0.0000
vt 0.375000 0.000000
vt 0.625000 0.000000
vt 0.625000 0.250000
vt 0.375000 0.250000
vt 0.625000 0.500000
vt 0.375000 0.500000
vt 0.625000 0.750000
vt 0.375000 0.750000
vt 0.625000 1.000000
vt 0.375000 1.000000
vt 0.125000 0.500000
vt 0.125000 0.750000
vt 0.875000 0.500000
vt 0.875000 0.750000
s 0
f 137/239/103 138/240/103 140/241/103 139/242/103
f 139/242/104 140/241/104 144/243/104 143/244/104
f 143/244/105 144/243/105 142/245/105 141/246/105
f 141/246/106 142/245/106 138/247/106 137/248/106
f 139/249/107 143/244/107 141/246/107 137/250/107
f 144/243/108 140/251/108 138/252/108 142/245/108
o Cube.018
v -23.668633 -6.832001 -44.662674
v -22.806744 -9.200026 -44.662674
v -23.668633 -6.832001 -77.002670
v -22.806744 -9.200026 -77.002670
v -40.958977 -13.125174 -56.465279
v -40.097088 -15.493198 -56.465279
v -40.958977 -13.125174 -77.002670
v -40.097088 -15.493198 -77.002670
vn 0.9397 0.3420 -0.0000
vn -0.0000 -0.0000 -1.0000
vn -0.9397 -0.3420 -0.0000
vn -0.5074 -0.1847 0.8417
vn -0.3420 0.9397 -0.0000
vn 0.3420 -0.9397 -0.0000
vt 0.375000 0.000000
vt 0.625000 0.000000
vt 0.625000 0.250000
vt 0.375000 0.250000
vt 0.625000 0.500000
vt 0.375000 0.500000
vt 0.625000 0.750000
vt 0.375000 0.750000
vt 0.625000 1.000000
vt 0.375000 1.000000
vt 0.125000 0.500000
vt 0.125000 0.750000
vt 0.875000 0.500000
vt 0.875000 0.750000
s 0
f 145/253/109 146/254/109 148/255/109 147/256/109
f 147/256/110 148/255/110 152/257/110 151/258/110
f 151/258/111 152/257/111 150/259/111 149/260/111
f 149/260/112 150/259/112 146/261/112 145/262/112
f 147/263/113 151/258/113 149/260/113 145/264/113
f 152/257/114 148/265/114 146/266/114 150/259/114
o Cube.019
v -4.807726 0.247674 -44.474697
v -4.807726 0.247674 -76.974701
v -4.807726 10.327673 -76.974701
v 7.452274 0.247674 -44.474697
v 7.452274 0.247674 -76.974701
v 7.452274 10.327673 -76.974701
v -4.807726 5.289775 -44.474697
v 7.452274 5.283291 -44.474697
v -4.807726 10.327673 -62.646019
v 7.452274 10.327673 -62.887966
vn -1.0000 -0.0000 -0.0000
vn -0.0000 -0.0000 -1.0000
vn 1.0000 -0.0000 -0.0000
vn -0.0000 -0.0000 1.0000
vn -0.0000 -1.0000 -0.0000
vn -0.0000 1.0000 -0.0000
vn 0.0029 0.9641 0.2657
vt 0.375000 0.000000
vt 0.500052 0.000000
vt 0.625000 0.139779
vt 0.625000 0.250000
vt 0.375000 0.250000
vt 0.625000 0.500000
vt 0.375000 0.500000
vt 0.625000 0.608359
vt 0.499891 0.750000
vt 0.375000 0.750000
vt 0.500052 1.000000
vt 0.375000 1.000000
vt 0.125000 0.500000
vt 0.125000 0.750000
vt 0.875000 0.500000
vt 0.875000 0.610221
s 0
f 153/267/115 159/268/115 161/269/115 155/270/115 154/271/115
f 154/271/116 155/270/116 158/272/116 157/273/116
f 157/273/117 158/272/117 162/274/117 160/275/117 156/276/117
f 156/276/118 160/275/118 159/277/118 153/278/118
f 154/279/119 157/273/119 156/276/119 153/280/119
f 158/272/120 155/281/120 161/282/120 162/274/120
f 161/269/121 159/277/121 160/275/121 162/274/121
o Cube.020
v -4.897726 0.000000 -125.830330
v -4.897726 0.000000 -138.850327
l 163 164
